<svg width="49pt" height="37pt" viewBox="0 0 51 39" xmlns="http://www.w3.org/2000/svg"><g id="fontsvg1668726804708" stroke-linecap="round" fill-rule="evenodd" fill="#000000"><path d="M 30 36 L 6 36 Q 4.35 36 2.975 35.2 Q 1.6 34.4 0.8 33.025 Q 0 31.65 0 30 L 0 6 Q 0 4.35 0.8 2.975 Q 1.6 1.6 2.975 0.8 Q 4.35 0 6 0 L 30 0 Q 31.65 0 33.025 0.8 Q 34.4 1.6 35.2 2.975 Q 36 4.35 36 6 L 36 30 Q 36 31.65 35.2 33.025 Q 34.4 34.4 33.025 35.2 Q 31.65 36 30 36 Z M 6 31.95 L 30 31.95 A 1.873 1.873 0 0 0 31.357 31.393 A 2.323 2.323 0 0 0 31.375 31.375 A 1.924 1.924 0 0 0 31.854 30.616 A 1.944 1.944 0 0 0 31.95 30 L 31.95 6 A 1.873 1.873 0 0 0 31.393 4.643 A 2.323 2.323 0 0 0 31.375 4.625 A 1.924 1.924 0 0 0 30.616 4.146 A 1.944 1.944 0 0 0 30 4.05 L 6 4.05 A 1.873 1.873 0 0 0 4.643 4.607 A 2.323 2.323 0 0 0 4.625 4.625 A 1.924 1.924 0 0 0 4.146 5.385 A 1.944 1.944 0 0 0 4.05 6 L 4.05 30 A 1.873 1.873 0 0 0 4.607 31.357 A 2.323 2.323 0 0 0 4.625 31.375 A 1.924 1.924 0 0 0 5.385 31.854 A 1.944 1.944 0 0 0 6 31.95 Z M 40.7 36 L 29.6 36 L 29.6 34.2 L 36 29.85 L 36 31.95 L 40.7 31.95 L 40.7 36 Z M 48.3 36 L 44.2 36 L 44.2 31.9 L 48.3 31.9 L 48.3 36 Z" vector-effect="non-scaling-stroke"/></g></svg>